<mxfile host="app.diagrams.net" modified="2022-06-01T11:06:49.146Z" agent="5.0 (Windows NT 10.0; Win64; x64) AppleWebKit/537.36 (KHTML, like Gecko) Chrome/100.0.4896.127 Safari/537.36 OPR/86.0.4363.64" etag="4-RI5Y7pxx4Lqa8Hulw7" version="18.2.0" type="github">
  <diagram id="cMxlnpY6EjmwejS0Zmen" name="Page-1">
    <mxGraphModel dx="1237" dy="588" grid="1" gridSize="10" guides="1" tooltips="1" connect="1" arrows="1" fold="1" page="1" pageScale="1" pageWidth="827" pageHeight="1169" math="0" shadow="0">
      <root>
        <mxCell id="0" />
        <mxCell id="1" parent="0" />
        <mxCell id="myKWL6i_lsL7ohDWzuKV-1" value="Пользователь" style="shape=umlActor;verticalLabelPosition=bottom;verticalAlign=top;html=1;outlineConnect=0;" vertex="1" parent="1">
          <mxGeometry x="430" y="300" width="30" height="60" as="geometry" />
        </mxCell>
        <mxCell id="myKWL6i_lsL7ohDWzuKV-2" value="Администратор" style="shape=umlActor;verticalLabelPosition=bottom;verticalAlign=top;html=1;outlineConnect=0;" vertex="1" parent="1">
          <mxGeometry x="260" y="300" width="30" height="60" as="geometry" />
        </mxCell>
        <mxCell id="myKWL6i_lsL7ohDWzuKV-6" value="Авторизация" style="ellipse;whiteSpace=wrap;html=1;" vertex="1" parent="1">
          <mxGeometry x="300" y="397.5" width="120" height="80" as="geometry" />
        </mxCell>
        <mxCell id="myKWL6i_lsL7ohDWzuKV-7" value="Загрузка файлов с расписанием студентов и распределением нагрузки" style="ellipse;whiteSpace=wrap;html=1;" vertex="1" parent="1">
          <mxGeometry x="234" y="160" width="180" height="100" as="geometry" />
        </mxCell>
        <mxCell id="myKWL6i_lsL7ohDWzuKV-8" value="Работа с данными" style="ellipse;whiteSpace=wrap;html=1;" vertex="1" parent="1">
          <mxGeometry x="100" y="400" width="120" height="80" as="geometry" />
        </mxCell>
        <mxCell id="myKWL6i_lsL7ohDWzuKV-9" value="Создание файла с расписанием преподавателей" style="ellipse;whiteSpace=wrap;html=1;" vertex="1" parent="1">
          <mxGeometry x="70" y="200" width="120" height="80" as="geometry" />
        </mxCell>
        <mxCell id="myKWL6i_lsL7ohDWzuKV-10" value="Редактирование" style="ellipse;whiteSpace=wrap;html=1;" vertex="1" parent="1">
          <mxGeometry x="10" y="300" width="120" height="80" as="geometry" />
        </mxCell>
        <mxCell id="myKWL6i_lsL7ohDWzuKV-11" value="Удаление" style="ellipse;whiteSpace=wrap;html=1;" vertex="1" parent="1">
          <mxGeometry x="210" y="505" width="120" height="80" as="geometry" />
        </mxCell>
        <mxCell id="myKWL6i_lsL7ohDWzuKV-12" value="Добавление" style="ellipse;whiteSpace=wrap;html=1;" vertex="1" parent="1">
          <mxGeometry x="10" y="505" width="120" height="80" as="geometry" />
        </mxCell>
        <mxCell id="myKWL6i_lsL7ohDWzuKV-13" value="Просмотр расписания" style="ellipse;whiteSpace=wrap;html=1;" vertex="1" parent="1">
          <mxGeometry x="450" y="170" width="120" height="80" as="geometry" />
        </mxCell>
        <mxCell id="myKWL6i_lsL7ohDWzuKV-14" value="Регистрация посещаемости студентов" style="ellipse;whiteSpace=wrap;html=1;" vertex="1" parent="1">
          <mxGeometry x="520" y="280" width="120" height="80" as="geometry" />
        </mxCell>
        <mxCell id="myKWL6i_lsL7ohDWzuKV-15" value="Выставление оценок студентам" style="ellipse;whiteSpace=wrap;html=1;" vertex="1" parent="1">
          <mxGeometry x="515" y="400" width="130" height="85" as="geometry" />
        </mxCell>
        <mxCell id="myKWL6i_lsL7ohDWzuKV-16" value="" style="endArrow=classic;html=1;rounded=0;entryX=0.5;entryY=0;entryDx=0;entryDy=0;" edge="1" parent="1" source="myKWL6i_lsL7ohDWzuKV-8" target="myKWL6i_lsL7ohDWzuKV-11">
          <mxGeometry relative="1" as="geometry">
            <mxPoint x="330" y="330" as="sourcePoint" />
            <mxPoint x="490" y="330" as="targetPoint" />
          </mxGeometry>
        </mxCell>
        <mxCell id="myKWL6i_lsL7ohDWzuKV-17" value="extend" style="edgeLabel;resizable=0;html=1;align=center;verticalAlign=middle;" connectable="0" vertex="1" parent="myKWL6i_lsL7ohDWzuKV-16">
          <mxGeometry relative="1" as="geometry" />
        </mxCell>
        <mxCell id="myKWL6i_lsL7ohDWzuKV-19" value="" style="endArrow=classic;html=1;rounded=0;entryX=0.5;entryY=0;entryDx=0;entryDy=0;" edge="1" parent="1" source="myKWL6i_lsL7ohDWzuKV-8" target="myKWL6i_lsL7ohDWzuKV-12">
          <mxGeometry relative="1" as="geometry">
            <mxPoint x="360" y="330" as="sourcePoint" />
            <mxPoint x="160" y="520" as="targetPoint" />
          </mxGeometry>
        </mxCell>
        <mxCell id="myKWL6i_lsL7ohDWzuKV-20" value="extend" style="edgeLabel;resizable=0;html=1;align=center;verticalAlign=middle;" connectable="0" vertex="1" parent="myKWL6i_lsL7ohDWzuKV-19">
          <mxGeometry relative="1" as="geometry" />
        </mxCell>
        <mxCell id="myKWL6i_lsL7ohDWzuKV-21" value="" style="endArrow=classic;html=1;rounded=0;exitX=0;exitY=0;exitDx=0;exitDy=0;entryX=0.5;entryY=1;entryDx=0;entryDy=0;" edge="1" parent="1" source="myKWL6i_lsL7ohDWzuKV-8" target="myKWL6i_lsL7ohDWzuKV-10">
          <mxGeometry relative="1" as="geometry">
            <mxPoint x="360" y="330" as="sourcePoint" />
            <mxPoint x="10" y="450" as="targetPoint" />
          </mxGeometry>
        </mxCell>
        <mxCell id="myKWL6i_lsL7ohDWzuKV-22" value="extend" style="edgeLabel;resizable=0;html=1;align=center;verticalAlign=middle;" connectable="0" vertex="1" parent="myKWL6i_lsL7ohDWzuKV-21">
          <mxGeometry relative="1" as="geometry" />
        </mxCell>
        <mxCell id="myKWL6i_lsL7ohDWzuKV-24" value="" style="endArrow=none;html=1;rounded=0;entryX=0.5;entryY=0;entryDx=0;entryDy=0;" edge="1" parent="1" target="myKWL6i_lsL7ohDWzuKV-8">
          <mxGeometry width="50" height="50" relative="1" as="geometry">
            <mxPoint x="260" y="350" as="sourcePoint" />
            <mxPoint x="440" y="310" as="targetPoint" />
          </mxGeometry>
        </mxCell>
        <mxCell id="myKWL6i_lsL7ohDWzuKV-25" value="" style="endArrow=none;html=1;rounded=0;exitX=1;exitY=1;exitDx=0;exitDy=0;" edge="1" parent="1" source="myKWL6i_lsL7ohDWzuKV-9">
          <mxGeometry width="50" height="50" relative="1" as="geometry">
            <mxPoint x="390" y="360" as="sourcePoint" />
            <mxPoint x="250" y="320" as="targetPoint" />
          </mxGeometry>
        </mxCell>
        <mxCell id="myKWL6i_lsL7ohDWzuKV-26" value="" style="endArrow=none;html=1;rounded=0;" edge="1" parent="1" target="myKWL6i_lsL7ohDWzuKV-7">
          <mxGeometry width="50" height="50" relative="1" as="geometry">
            <mxPoint x="290" y="290" as="sourcePoint" />
            <mxPoint x="440" y="310" as="targetPoint" />
          </mxGeometry>
        </mxCell>
        <mxCell id="myKWL6i_lsL7ohDWzuKV-27" value="" style="endArrow=none;html=1;rounded=0;entryX=0;entryY=0;entryDx=0;entryDy=0;" edge="1" parent="1" target="myKWL6i_lsL7ohDWzuKV-6">
          <mxGeometry width="50" height="50" relative="1" as="geometry">
            <mxPoint x="300" y="390" as="sourcePoint" />
            <mxPoint x="440" y="507.5" as="targetPoint" />
          </mxGeometry>
        </mxCell>
        <mxCell id="myKWL6i_lsL7ohDWzuKV-28" value="" style="endArrow=none;html=1;rounded=0;entryX=1;entryY=0;entryDx=0;entryDy=0;" edge="1" parent="1" target="myKWL6i_lsL7ohDWzuKV-6">
          <mxGeometry width="50" height="50" relative="1" as="geometry">
            <mxPoint x="420" y="390" as="sourcePoint" />
            <mxPoint x="440" y="507.5" as="targetPoint" />
          </mxGeometry>
        </mxCell>
        <mxCell id="myKWL6i_lsL7ohDWzuKV-29" value="" style="endArrow=none;html=1;rounded=0;" edge="1" parent="1" source="myKWL6i_lsL7ohDWzuKV-13">
          <mxGeometry width="50" height="50" relative="1" as="geometry">
            <mxPoint x="390" y="360" as="sourcePoint" />
            <mxPoint x="460" y="290" as="targetPoint" />
          </mxGeometry>
        </mxCell>
        <mxCell id="myKWL6i_lsL7ohDWzuKV-30" value="" style="endArrow=none;html=1;rounded=0;entryX=0;entryY=0.5;entryDx=0;entryDy=0;" edge="1" parent="1" target="myKWL6i_lsL7ohDWzuKV-14">
          <mxGeometry width="50" height="50" relative="1" as="geometry">
            <mxPoint x="480" y="320" as="sourcePoint" />
            <mxPoint x="440" y="310" as="targetPoint" />
          </mxGeometry>
        </mxCell>
        <mxCell id="myKWL6i_lsL7ohDWzuKV-31" value="" style="endArrow=none;html=1;rounded=0;entryX=0;entryY=0;entryDx=0;entryDy=0;" edge="1" parent="1" target="myKWL6i_lsL7ohDWzuKV-15">
          <mxGeometry width="50" height="50" relative="1" as="geometry">
            <mxPoint x="480" y="360" as="sourcePoint" />
            <mxPoint x="440" y="310" as="targetPoint" />
          </mxGeometry>
        </mxCell>
      </root>
    </mxGraphModel>
  </diagram>
</mxfile>
